<svg xmlns="http://www.w3.org/2000/svg" width="300" height="300" viewBox="0 0 300 300">
  <defs>
    <linearGradient id="background-svg-a" x1="50%" x2="50%" y1="0%" y2="100%">
      <stop offset="0%" stop-color="#C8C8C8" stop-opacity=".08"/>
      <stop offset="36.376%" stop-color="#B6B6B6" stop-opacity=".21"/>
      <stop offset="100%" stop-color="#979797"/>
    </linearGradient>
  </defs>
  <g fill="#D8D8D8" fill-opacity="0" fill-rule="evenodd">
    <ellipse cx="147.5" cy="73.612" fill="none" stroke="#979797" stroke-width="6" rx="61.5" ry="14.612"/>
    <ellipse cx="163.89" cy="68.112" fill="none" stroke="#979797" stroke-width="2" rx="8.89" ry="2.112"/>
    <ellipse cx="112.5" cy="74.5" fill="none" stroke="#979797" stroke-width="1.2" rx="5.5" ry="1.5"/>
    <ellipse cx="147" cy="83" fill="none" stroke="#979797" stroke-width=".6" rx="3" ry="1"/>
    <ellipse cx="147.5" cy="90.612" fill="none" stroke="url(#background-svg-a)" stroke-width="6" rx="61.5" ry="14.612"/>
    <path fill="none" stroke="#979797" stroke-width="6" d="M86 74.2082552L86 93.4084367M209 73.2082552L209 92.4084367"/>
    <g transform="translate(230 201)">
      <ellipse cx="64.5" cy="14.612" fill="none" stroke="#979797" stroke-width="6" rx="61.5" ry="14.612"/>
      <ellipse cx="29.5" cy="15.5" fill="none" stroke="#979797" stroke-width="1.2" rx="5.5" ry="1.5"/>
      <ellipse cx="64" cy="24" fill="none" stroke="#979797" stroke-width=".6" rx="3" ry="1"/>
      <ellipse cx="64.5" cy="31.612" fill="none" stroke="url(#background-svg-a)" stroke-width="6" rx="61.5" ry="14.612"/>
      <path fill="none" stroke="#979797" stroke-width="6" d="M3,15.2082552 L3,34.4084367"/>
    </g>
    <g transform="translate(-68 201)">
      <ellipse cx="61.5" cy="14.612" fill="none" stroke="#979797" stroke-width="6" rx="61.5" ry="14.612"/>
      <ellipse cx="61.5" cy="14.612" fill="none" stroke="#979797" stroke-width="6" rx="61.5" ry="14.612"/>
      <ellipse cx="77.89" cy="9.112" fill="none" stroke="#979797" stroke-width="2" rx="8.89" ry="2.112"/>
      <ellipse cx="61.5" cy="31.612" fill="none" stroke="url(#background-svg-a)" stroke-width="6" rx="61.5" ry="14.612"/>
      <path fill="none" stroke="#979797" stroke-width="6" d="M123,14.2082552 L123,33.4084367"/>
      <ellipse cx="77.89" cy="9.112" fill="none" stroke="#979797" stroke-width="2" rx="8.89" ry="2.112"/>
      <ellipse cx="61.5" cy="31.612" fill="none" stroke="url(#background-svg-a)" stroke-width="6" rx="61.5" ry="14.612"/>
      <path fill="none" stroke="#979797" stroke-width="6" d="M123,14.2082552 L123,33.4084367"/>
    </g>
  </g>
</svg>
